<svg width="32" height="32" version="1.1" xmlns="http://www.w3.org/2000/svg" desc="Created with imagetracer.js version 1.2.6" ><path fill="rgb(247,236,231)" stroke="rgb(247,236,231)" stroke-width="1" opacity="1" d="M 9.5 13 L 10 15.5 L 9 15.5 L 9.5 13 Z " /><path fill="rgb(247,236,231)" stroke="rgb(247,236,231)" stroke-width="1" opacity="1" d="M 23.5 13 L 24 16.5 L 23 16.5 L 23.5 13 Z " /><path fill="rgb(247,236,231)" stroke="rgb(247,236,231)" stroke-width="1" opacity="1" d="M 10.5 18 L 12.5 21 L 10.5 18 Z " /><path fill="rgb(254,254,254)" stroke="rgb(254,254,254)" stroke-width="1" opacity="1" d="M 13.5 6 L 17.5 7 L 19.5 6 L 19.5 7 L 15.5 8 L 13.5 7 L 12 7.5 L 13.5 6 Z " /><path fill="rgb(254,254,254)" stroke="rgb(254,254,254)" stroke-width="1" opacity="1" d="M 21.5 7 Q 26 9 22.5 11 L 21 9.5 L 21.5 7 Z " /><path fill="rgb(254,254,254)" stroke="rgb(254,254,254)" stroke-width="1" opacity="1" d="M 24.5 11 L 23.5 13 L 24.5 11 Z " /><path fill="rgb(254,254,254)" stroke="rgb(254,254,254)" stroke-width="1" opacity="1" d="M 7.5 13 L 8 15.5 L 7 15.5 L 7.5 13 Z " /><path fill="rgb(254,254,254)" stroke="rgb(254,254,254)" stroke-width="1" opacity="1" d="M 25.5 13 L 26 16.5 L 25 16.5 L 25.5 13 Z " /><path fill="rgb(254,254,254)" stroke="rgb(254,254,254)" stroke-width="1" opacity="1" d="M 9.5 16 L 9 17.5 L 12.5 22 L 14 21.5 L 12.5 23 L 8 18.5 L 9.5 16 Z " /><path fill="rgb(254,254,254)" stroke="rgb(254,254,254)" stroke-width="1" opacity="1" d="M 23.5 17 Q 26.5 18.5 23.5 20 L 23.5 17 Z " /><path fill="rgb(254,254,254)" stroke="rgb(254,254,254)" stroke-width="1" opacity="1" d="M 19.5 21 L 20.5 23 L 19.5 21 Z " /><path fill="rgb(254,254,254)" stroke="rgb(254,254,254)" stroke-width="1" opacity="1" d="M 14.5 23 L 19 23.5 L 14.5 24 L 14.5 23 Z " /><path fill="rgb(0,0,0)" stroke="rgb(0,0,0)" stroke-width="1" opacity="0" d="M 0 0 L 32 0 L 32 32 L 0 32 L 0 0 Z M 2 2 L 2 30 L 30 30 L 30 2 L 2 2 Z " /><path fill="rgb(255,255,255)" stroke="rgb(255,255,255)" stroke-width="1" opacity="1" d="M 2 2 L 30 2 L 30 30 L 2 30 L 2 2 Z M 16 7 L 14 8 L 9 14 Q 9 20 14 22 Q 23 24 24 18 L 23 11 L 16 7 Z M 8 13 L 7 16 L 8 16 L 8 13 Z M 26 13 L 25 17 L 26 17 L 26 13 Z M 15 23 L 15 24 L 19 24 L 15 23 Z " /><path fill="rgb(227,184,165)" stroke="rgb(227,184,165)" stroke-width="1" opacity="1" d="M 15.5 8 L 17.5 8 L 23 12.5 L 22 15.5 L 23 18 L 20 19.5 L 19.5 21 L 14.5 20 L 13 20.5 L 12 17 Q 8.7 18.3 10 13.5 L 15.5 8 Z M 15 10 L 13 12 L 14 15 L 13 18 L 14 19 L 20 19 L 19 17 L 20 12 Q 19 9 15 10 Z " /><path fill="rgb(178,131,94)" stroke="rgb(178,131,94)" stroke-width="1" opacity="1" d="M 14 11 L 19.5 11 L 20 12.5 L 19 17 L 15 17.5 L 20 18.5 L 14 19 L 14 11 Z M 16 12 L 16 13 L 18 13 L 16 12 Z " /><path fill="rgb(219,175,153)" stroke="rgb(219,175,153)" stroke-width="1" opacity="1" d="M 13.5 9 L 18.5 10 Q 20.3 7.3 22 11.5 L 19.5 10 L 18.5 11 Q 12.7 8.9 14 13.5 L 13 13.5 L 12.5 11 L 11 11.5 L 13.5 9 Z " /><path fill="rgb(219,175,153)" stroke="rgb(219,175,153)" stroke-width="1" opacity="1" d="M 15.5 12 L 18 12.5 L 15.5 13 L 15.5 12 Z " /><path fill="rgb(219,175,153)" stroke="rgb(219,175,153)" stroke-width="1" opacity="1" d="M 19.5 13 L 20 15.5 L 19 15.5 L 19.5 13 Z " /><path fill="rgb(219,175,153)" stroke="rgb(219,175,153)" stroke-width="1" opacity="1" d="M 22.5 13 L 23 15.5 L 22 15.5 L 22.5 13 Z " /><path fill="rgb(219,175,153)" stroke="rgb(219,175,153)" stroke-width="1" opacity="1" d="M 11.5 17 L 12.5 19 L 13.5 17 L 14 18.5 Q 12.5 21.5 11 18.5 L 11.5 17 Z " /><path fill="rgb(219,175,153)" stroke="rgb(219,175,153)" stroke-width="1" opacity="1" d="M 21.5 18 L 20.5 20 L 21.5 18 Z " /><path fill="rgb(219,175,153)" stroke="rgb(219,175,153)" stroke-width="1" opacity="1" d="M 14.5 20 L 19 20.5 L 14.5 21 L 14.5 20 Z " /><path fill="rgb(232,204,190)" stroke="rgb(232,204,190)" stroke-width="1" opacity="1" d="M 12.5 9 L 11.5 11 L 12.5 9 Z " /><path fill="rgb(232,204,190)" stroke="rgb(232,204,190)" stroke-width="1" opacity="1" d="M 20.5 9 L 22.5 12 L 20.5 9 Z " /><path fill="rgb(232,204,190)" stroke="rgb(232,204,190)" stroke-width="1" opacity="1" d="M 15.5 17 L 18 17.5 L 15.5 18 L 15.5 17 Z " /><path fill="rgb(232,204,190)" stroke="rgb(232,204,190)" stroke-width="1" opacity="1" d="M 15.5 21 L 18 21.5 L 15.5 22 L 15.5 21 Z " /></svg>